<?xml version="1.0" encoding="UTF-8" standalone="no"?>
<!DOCTYPE svg PUBLIC "-//W3C//DTD SVG 1.1//EN" "http://www.w3.org/Graphics/SVG/1.1/DTD/svg11.dtd">
<svg xmlns="http://www.w3.org/2000/svg" version="1.1" viewBox="0.00 0.00 500.00 500.00">
<path fill="#000000" d="
  M 442.13 249.99
  A 192.13 192.13 0.0 0 1 250.00 442.12
  A 192.13 192.13 0.0 0 1 57.87 249.99
  A 192.13 192.13 0.0 0 1 250.00 57.86
  A 192.13 192.13 0.0 0 1 442.13 249.99
  Z
  M 237.97 149.15
  C 280.52 142.25 320.89 171.70 326.93 214.56
  C 331.41 246.33 316.34 277.12 288.55 293.18
  A 0.39 0.39 0.0 0 0 288.67 293.90
  C 331.29 303.11 364.58 333.89 378.29 374.98
  A 0.44 0.43 57.8 0 0 379.01 375.15
  C 408.07 344.78 425.97 306.19 429.29 264.30
  C 437.66 158.73 352.86 68.45 246.79 70.16
  C 172.48 71.37 105.92 119.48 80.93 188.68
  C 57.44 253.74 73.07 324.97 120.80 374.99
  A 0.60 0.59 32.3 0 0 121.80 374.77
  C 135.33 333.78 168.81 303.24 211.12 294.00
  A 0.49 0.49 0.0 0 0 211.27 293.11
  C 148.84 255.17 164.69 161.04 237.97 149.15
  Z
  M 315.39 225.69
  A 65.39 65.39 0.0 0 0 250.00 160.30
  A 65.39 65.39 0.0 0 0 184.61 225.69
  A 65.39 65.39 0.0 0 0 250.00 291.08
  A 65.39 65.39 0.0 0 0 315.39 225.69
  Z
  M 131.90 385.51
  C 200.25 444.35 299.41 444.72 367.94 385.59
  Q 368.31 385.26 368.19 384.78
  C 357.18 341.63 321.03 310.99 277.73 304.50
  C 266.23 302.78 252.21 303.51 239.61 303.53
  Q 227.51 303.55 220.10 304.80
  C 177.14 312.06 142.96 342.75 131.69 384.83
  A 0.67 0.66 -62.6 0 0 131.90 385.51
  Z"
/>
</svg>
